<mxfile host="drawio-plugin" modified="2021-05-11T06:27:02.726Z" agent="5.0 (X11; Linux x86_64) AppleWebKit/537.36 (KHTML, like Gecko) Chrome/87.0.4280.141 Safari/537.36" etag="H54PJAaUfgGNpLIvHRnx" version="13.7.9" type="embed"><diagram name="Page-1" id="c4acf3e9-155e-7222-9cf6-157b1a14988f"><mxGraphModel dx="808" dy="813" grid="1" gridSize="10" guides="1" tooltips="1" connect="1" arrows="1" fold="1" page="1" pageScale="1" pageWidth="850" pageHeight="1100" background="none" math="0" shadow="0"><root><mxCell id="0"/><mxCell id="1" parent="0"/><mxCell id="5d2195bd80daf111-9" value="&lt;p style=&quot;margin: 0px ; margin-top: 4px ; text-align: center&quot;&gt;&lt;span style=&quot;font-family: &amp;#34;verdana&amp;#34; ; font-size: 10px&quot;&gt;Staff&lt;/span&gt;&lt;br&gt;&lt;/p&gt;&lt;hr size=&quot;1&quot;&gt;&lt;p style=&quot;margin: 0px ; margin-left: 4px&quot;&gt;+ first_name&lt;br&gt;+ second_name&lt;/p&gt;&lt;p style=&quot;margin: 0px ; margin-left: 4px&quot;&gt;+ is_busy&lt;br&gt;&lt;/p&gt;&lt;hr size=&quot;1&quot;&gt;&lt;p style=&quot;margin: 0px ; margin-left: 4px&quot;&gt;+ day_start()&lt;/p&gt;&lt;p style=&quot;margin: 0px ; margin-left: 4px&quot;&gt;+ day_end()&lt;/p&gt;&lt;p style=&quot;margin: 0px ; margin-left: 4px&quot;&gt;+ do_work()&lt;/p&gt;" style="verticalAlign=top;align=left;overflow=fill;fontSize=12;fontFamily=Helvetica;html=1;rounded=0;shadow=0;comic=0;labelBackgroundColor=none;strokeWidth=1" parent="1" vertex="1"><mxGeometry x="170" y="80" width="150" height="130" as="geometry"/></mxCell><mxCell id="PRGYdCkZobLGaSsPeYjC-2" value="&lt;p style=&quot;margin: 0px ; margin-top: 4px ; text-align: center&quot;&gt;&lt;font face=&quot;verdana&quot;&gt;&lt;span style=&quot;font-size: 10px&quot;&gt;Waiter&lt;/span&gt;&lt;/font&gt;&lt;/p&gt;&lt;hr size=&quot;1&quot;&gt;&lt;p style=&quot;margin: 0px ; margin-left: 4px&quot;&gt;+ client&lt;/p&gt;&lt;hr size=&quot;1&quot;&gt;&lt;p style=&quot;margin: 0px ; margin-left: 4px&quot;&gt;+ do_work(food)&lt;/p&gt;" style="verticalAlign=top;align=left;overflow=fill;fontSize=12;fontFamily=Helvetica;html=1;rounded=0;shadow=0;comic=0;labelBackgroundColor=none;strokeWidth=1" parent="1" vertex="1"><mxGeometry x="50" y="310" width="150" height="90" as="geometry"/></mxCell><mxCell id="PRGYdCkZobLGaSsPeYjC-3" value="&lt;p style=&quot;margin: 0px ; margin-top: 4px ; text-align: center&quot;&gt;&lt;font face=&quot;verdana&quot;&gt;&lt;span style=&quot;font-size: 10px&quot;&gt;Menu&lt;/span&gt;&lt;/font&gt;&lt;/p&gt;&lt;hr size=&quot;1&quot;&gt;&lt;p style=&quot;margin: 0px ; margin-left: 4px&quot;&gt;+ dishes&lt;/p&gt;&lt;hr size=&quot;1&quot;&gt;&lt;p style=&quot;margin: 0px ; margin-left: 4px&quot;&gt;&lt;/p&gt;&lt;span&gt;+ update(dish)&lt;br&gt;+ form_order(order): dishes, price&lt;br&gt;&lt;/span&gt;" style="verticalAlign=top;align=left;overflow=fill;fontSize=12;fontFamily=Helvetica;html=1;rounded=0;shadow=0;comic=0;labelBackgroundColor=none;strokeWidth=1" parent="1" vertex="1"><mxGeometry x="410" y="720" width="190" height="90" as="geometry"/></mxCell><mxCell id="PRGYdCkZobLGaSsPeYjC-4" value="&lt;p style=&quot;margin: 0px ; margin-top: 4px ; text-align: center&quot;&gt;&lt;font face=&quot;verdana&quot;&gt;&lt;span style=&quot;font-size: 10px&quot;&gt;Сourier&lt;/span&gt;&lt;/font&gt;&lt;br&gt;&lt;/p&gt;&lt;hr size=&quot;1&quot;&gt;&lt;p style=&quot;margin: 0px ; margin-left: 4px&quot;&gt;&lt;/p&gt;&lt;p style=&quot;margin: 0px ; margin-left: 4px&quot;&gt;+ do_work(package)&lt;/p&gt;" style="verticalAlign=top;align=left;overflow=fill;fontSize=12;fontFamily=Helvetica;html=1;rounded=0;shadow=0;comic=0;labelBackgroundColor=none;strokeWidth=1" parent="1" vertex="1"><mxGeometry x="210" y="310" width="150" height="60" as="geometry"/></mxCell><mxCell id="PRGYdCkZobLGaSsPeYjC-5" value="&lt;p style=&quot;margin: 0px ; margin-top: 4px ; text-align: center&quot;&gt;&lt;font face=&quot;verdana&quot;&gt;&lt;span style=&quot;font-size: 10px&quot;&gt;Packer&lt;/span&gt;&lt;/font&gt;&lt;/p&gt;&lt;hr size=&quot;1&quot;&gt;&lt;p style=&quot;margin: 0px ; margin-left: 4px&quot;&gt;+ do_work(food): package&lt;/p&gt;" style="verticalAlign=top;align=left;overflow=fill;fontSize=12;fontFamily=Helvetica;html=1;rounded=0;shadow=0;comic=0;labelBackgroundColor=none;strokeWidth=1" parent="1" vertex="1"><mxGeometry x="370" y="310" width="150" height="60" as="geometry"/></mxCell><mxCell id="PRGYdCkZobLGaSsPeYjC-6" value="&lt;p style=&quot;margin: 0px ; margin-top: 4px ; text-align: center&quot;&gt;&lt;font face=&quot;verdana&quot;&gt;&lt;span style=&quot;font-size: 10px&quot;&gt;Restaurant&lt;/span&gt;&lt;/font&gt;&lt;br&gt;&lt;/p&gt;&lt;hr size=&quot;1&quot;&gt;&lt;p style=&quot;margin: 0px ; margin-left: 4px&quot;&gt;+ menu&lt;/p&gt;&lt;p style=&quot;margin: 0px ; margin-left: 4px&quot;&gt;+ hall&lt;/p&gt;&lt;p style=&quot;margin: 0px ; margin-left: 4px&quot;&gt;+ delivery&lt;/p&gt;&lt;p style=&quot;margin: 0px ; margin-left: 4px&quot;&gt;- kitchen&lt;/p&gt;&lt;hr size=&quot;1&quot;&gt;&lt;p style=&quot;margin: 0px ; margin-left: 4px&quot;&gt;+ prepare_delivery(order)&lt;/p&gt;&lt;p style=&quot;margin: 0px ; margin-left: 4px&quot;&gt;+ prepare_order()&lt;/p&gt;" style="verticalAlign=top;align=left;overflow=fill;fontSize=12;fontFamily=Helvetica;html=1;rounded=0;shadow=0;comic=0;labelBackgroundColor=none;strokeWidth=1" parent="1" vertex="1"><mxGeometry x="630" y="630" width="190" height="140" as="geometry"/></mxCell><mxCell id="PRGYdCkZobLGaSsPeYjC-7" value="&lt;p style=&quot;margin: 0px ; margin-top: 4px ; text-align: center&quot;&gt;&lt;font face=&quot;verdana&quot;&gt;&lt;span style=&quot;font-size: 10px&quot;&gt;Hall&lt;/span&gt;&lt;/font&gt;&lt;br&gt;&lt;/p&gt;&lt;hr size=&quot;1&quot;&gt;&lt;p style=&quot;margin: 0px ; margin-left: 4px&quot;&gt;+ waiters&lt;/p&gt;&lt;p style=&quot;margin: 0px ; margin-left: 4px&quot;&gt;+ guests&lt;/p&gt;&lt;p style=&quot;margin: 0px ; margin-left: 4px&quot;&gt;+ capacity&lt;/p&gt;&lt;hr size=&quot;1&quot;&gt;&lt;p style=&quot;margin: 0px ; margin-left: 4px&quot;&gt;+ add_guest(client)&lt;/p&gt;&lt;p style=&quot;margin: 0px ; margin-left: 4px&quot;&gt;+ serve()&lt;/p&gt;" style="verticalAlign=top;align=left;overflow=fill;fontSize=12;fontFamily=Helvetica;html=1;rounded=0;shadow=0;comic=0;labelBackgroundColor=none;strokeWidth=1" parent="1" vertex="1"><mxGeometry x="30" y="480" width="190" height="130" as="geometry"/></mxCell><mxCell id="PRGYdCkZobLGaSsPeYjC-8" value="&lt;p style=&quot;margin: 0px ; margin-top: 4px ; text-align: center&quot;&gt;&lt;font face=&quot;verdana&quot;&gt;&lt;span style=&quot;font-size: 10px&quot;&gt;Kitchen&lt;/span&gt;&lt;/font&gt;&lt;br&gt;&lt;/p&gt;&lt;hr size=&quot;1&quot;&gt;&lt;p style=&quot;margin: 0px ; margin-left: 4px&quot;&gt;&lt;/p&gt;&lt;p style=&quot;margin: 0px ; margin-left: 4px&quot;&gt;+ make_preparations()&lt;/p&gt;&lt;p style=&quot;margin: 0px ; margin-left: 4px&quot;&gt;+ prepare_food(dishes): food&lt;/p&gt;" style="verticalAlign=top;align=left;overflow=fill;fontSize=12;fontFamily=Helvetica;html=1;rounded=0;shadow=0;comic=0;labelBackgroundColor=none;strokeWidth=1" parent="1" vertex="1"><mxGeometry x="170" y="720" width="190" height="90" as="geometry"/></mxCell><mxCell id="PRGYdCkZobLGaSsPeYjC-9" value="&lt;p style=&quot;margin: 0px ; margin-top: 4px ; text-align: center&quot;&gt;&lt;font face=&quot;verdana&quot;&gt;&lt;span style=&quot;font-size: 10px&quot;&gt;Delivery&lt;/span&gt;&lt;/font&gt;&lt;br&gt;&lt;/p&gt;&lt;hr size=&quot;1&quot;&gt;&lt;p style=&quot;margin: 0px ; margin-left: 4px&quot;&gt;+ couriers&lt;/p&gt;&lt;p style=&quot;margin: 0px ; margin-left: 4px&quot;&gt;+ packers&lt;/p&gt;&lt;hr size=&quot;1&quot;&gt;&lt;p style=&quot;margin: 0px ; margin-left: 4px&quot;&gt;- choose_packer(food): package&lt;/p&gt;&lt;p style=&quot;margin: 0px ; margin-left: 4px&quot;&gt;+ deliver(package)&lt;/p&gt;" style="verticalAlign=top;align=left;overflow=fill;fontSize=12;fontFamily=Helvetica;html=1;rounded=0;shadow=0;comic=0;labelBackgroundColor=none;strokeWidth=1" parent="1" vertex="1"><mxGeometry x="290" y="480" width="190" height="110" as="geometry"/></mxCell><mxCell id="PRGYdCkZobLGaSsPeYjC-10" value="&lt;p style=&quot;margin: 0px ; margin-top: 4px ; text-align: center&quot;&gt;&lt;font face=&quot;verdana&quot;&gt;&lt;span style=&quot;font-size: 10px&quot;&gt;Сlient&lt;/span&gt;&lt;/font&gt;&lt;br&gt;&lt;/p&gt;&lt;hr size=&quot;1&quot;&gt;&lt;p style=&quot;margin: 0px ; margin-left: 4px&quot;&gt;+ first_name&lt;br&gt;+ second_name&lt;br&gt;&lt;/p&gt;&lt;p style=&quot;margin: 0px ; margin-left: 4px&quot;&gt;- address&lt;/p&gt;&lt;hr size=&quot;1&quot;&gt;&lt;p style=&quot;margin: 0px ; margin-left: 4px&quot;&gt;+ order_delivery(): dishes&lt;/p&gt;&lt;p style=&quot;margin: 0px ; margin-left: 4px&quot;&gt;+ make_an_order(): dishes&lt;/p&gt;" style="verticalAlign=top;align=left;overflow=fill;fontSize=12;fontFamily=Helvetica;html=1;rounded=0;shadow=0;comic=0;labelBackgroundColor=none;strokeWidth=1" parent="1" vertex="1"><mxGeometry x="630" y="890" width="190" height="130" as="geometry"/></mxCell><mxCell id="PRGYdCkZobLGaSsPeYjC-17" value="" style="endArrow=block;endSize=16;endFill=0;html=1;exitX=0.5;exitY=0;exitDx=0;exitDy=0;" parent="1" source="PRGYdCkZobLGaSsPeYjC-2" edge="1"><mxGeometry width="160" relative="1" as="geometry"><mxPoint x="120" y="300" as="sourcePoint"/><mxPoint x="230" y="210" as="targetPoint"/><Array as="points"><mxPoint x="125" y="250"/><mxPoint x="230" y="250"/></Array></mxGeometry></mxCell><mxCell id="PRGYdCkZobLGaSsPeYjC-18" value="" style="endArrow=block;endSize=16;endFill=0;html=1;" parent="1" edge="1"><mxGeometry width="160" relative="1" as="geometry"><mxPoint x="285" y="308" as="sourcePoint"/><mxPoint x="230" y="210" as="targetPoint"/><Array as="points"><mxPoint x="285" y="250"/><mxPoint x="230" y="250"/></Array></mxGeometry></mxCell><mxCell id="PRGYdCkZobLGaSsPeYjC-19" value="" style="endArrow=block;endSize=16;endFill=0;html=1;exitX=0.5;exitY=0;exitDx=0;exitDy=0;" parent="1" edge="1"><mxGeometry width="160" relative="1" as="geometry"><mxPoint x="442.27" y="309.9999999999999" as="sourcePoint"/><mxPoint x="230" y="210" as="targetPoint"/><Array as="points"><mxPoint x="442" y="250"/><mxPoint x="230" y="250"/></Array></mxGeometry></mxCell><mxCell id="PRGYdCkZobLGaSsPeYjC-20" value="" style="endArrow=diamondThin;endFill=0;endSize=24;html=1;exitX=0.5;exitY=1;exitDx=0;exitDy=0;entryX=0.5;entryY=0;entryDx=0;entryDy=0;" parent="1" source="PRGYdCkZobLGaSsPeYjC-2" target="PRGYdCkZobLGaSsPeYjC-7" edge="1"><mxGeometry width="160" relative="1" as="geometry"><mxPoint x="330" y="460" as="sourcePoint"/><mxPoint x="490" y="460" as="targetPoint"/></mxGeometry></mxCell><mxCell id="PRGYdCkZobLGaSsPeYjC-21" value="" style="endArrow=diamondThin;endFill=0;endSize=24;html=1;exitX=0.5;exitY=1;exitDx=0;exitDy=0;entryX=0.5;entryY=0;entryDx=0;entryDy=0;" parent="1" target="PRGYdCkZobLGaSsPeYjC-9" edge="1"><mxGeometry width="160" relative="1" as="geometry"><mxPoint x="284.56" y="369.9999999999999" as="sourcePoint"/><mxPoint x="310" y="449" as="targetPoint"/><Array as="points"><mxPoint x="285" y="430"/><mxPoint x="385" y="430"/></Array></mxGeometry></mxCell><mxCell id="PRGYdCkZobLGaSsPeYjC-22" value="" style="endArrow=diamondThin;endFill=0;endSize=24;html=1;exitX=0.5;exitY=1;exitDx=0;exitDy=0;entryX=0.5;entryY=0;entryDx=0;entryDy=0;" parent="1" target="PRGYdCkZobLGaSsPeYjC-9" edge="1"><mxGeometry width="160" relative="1" as="geometry"><mxPoint x="454.99999999999994" y="369.9999999999999" as="sourcePoint"/><mxPoint x="390" y="480" as="targetPoint"/><Array as="points"><mxPoint x="455.44" y="430"/><mxPoint x="385" y="430"/></Array></mxGeometry></mxCell><mxCell id="PRGYdCkZobLGaSsPeYjC-24" value="" style="endArrow=block;endSize=16;endFill=0;html=1;exitX=0.544;exitY=1.004;exitDx=0;exitDy=0;entryX=0;entryY=0.25;entryDx=0;entryDy=0;exitPerimeter=0;" parent="1" source="PRGYdCkZobLGaSsPeYjC-7" target="PRGYdCkZobLGaSsPeYjC-6" edge="1"><mxGeometry width="160" relative="1" as="geometry"><mxPoint x="202" y="719.9999999999999" as="sourcePoint"/><mxPoint x="530" y="670" as="targetPoint"/><Array as="points"><mxPoint x="135" y="665"/></Array></mxGeometry></mxCell><mxCell id="PRGYdCkZobLGaSsPeYjC-25" value="" style="endArrow=block;endSize=16;endFill=0;html=1;exitX=0.5;exitY=0;exitDx=0;exitDy=0;entryX=0;entryY=0.25;entryDx=0;entryDy=0;" parent="1" source="PRGYdCkZobLGaSsPeYjC-8" target="PRGYdCkZobLGaSsPeYjC-6" edge="1"><mxGeometry width="160" relative="1" as="geometry"><mxPoint x="275" y="730" as="sourcePoint"/><mxPoint x="525.8199999999999" y="668.8399999999999" as="targetPoint"/><Array as="points"><mxPoint x="265" y="665"/></Array></mxGeometry></mxCell><mxCell id="PRGYdCkZobLGaSsPeYjC-26" value="" style="endArrow=block;endSize=16;endFill=0;html=1;exitX=0.5;exitY=1;exitDx=0;exitDy=0;entryX=0;entryY=0.25;entryDx=0;entryDy=0;" parent="1" source="PRGYdCkZobLGaSsPeYjC-9" target="PRGYdCkZobLGaSsPeYjC-6" edge="1"><mxGeometry width="160" relative="1" as="geometry"><mxPoint x="143.3599999999999" y="610" as="sourcePoint"/><mxPoint x="530" y="664.48" as="targetPoint"/><Array as="points"><mxPoint x="385" y="664"/></Array></mxGeometry></mxCell><mxCell id="PRGYdCkZobLGaSsPeYjC-27" value="" style="endArrow=diamondThin;endFill=1;endSize=24;html=1;exitX=0.5;exitY=0;exitDx=0;exitDy=0;entryX=0.5;entryY=1;entryDx=0;entryDy=0;" parent="1" source="PRGYdCkZobLGaSsPeYjC-10" target="PRGYdCkZobLGaSsPeYjC-6" edge="1"><mxGeometry width="160" relative="1" as="geometry"><mxPoint x="570" y="770" as="sourcePoint"/><mxPoint x="730" y="770" as="targetPoint"/></mxGeometry></mxCell></root></mxGraphModel></diagram></mxfile>